<?xml version="1.0" encoding="utf-8"?>
<!-- Generator: Adobe Illustrator 25.2.1, SVG Export Plug-In . SVG Version: 6.00 Build 0)  -->
<svg version="1.1" id="Layer_1" xmlns="http://www.w3.org/2000/svg" xmlns:xlink="http://www.w3.org/1999/xlink" x="0px" y="0px"
	 viewBox="0 0 500 75" style="enable-background:new 0 0 500 75;" xml:space="preserve">
<style type="text/css">
	.st0{fill:#425325;}
	.st1{fill:#929E66;}
	.st2{fill-rule:evenodd;clip-rule:evenodd;fill:#425325;}
	.st3{fill:#FFFFFF;}
	.st4{fill-rule:evenodd;clip-rule:evenodd;fill:#DEB16C;}
	.st5{fill-rule:evenodd;clip-rule:evenodd;fill:#929E66;}
	.st6{fill-rule:evenodd;clip-rule:evenodd;fill:#FFFFFF;}
</style>
<g>
	<path class="st0" d="M305.9,25.2c0.8-0.2,1.6-0.3,2.3-0.3c1.8,0,3.2,0.6,4.3,1.8c1.1,1.2,1.7,2.8,1.7,4.9c0,2.1-0.6,3.7-1.7,4.9
		c-1.1,1.2-2.6,1.8-4.3,1.8c-0.6,0-1.4-0.1-2.4-0.3V25.2z M308.3,39c2.9,0,5.1-0.8,6.5-2.4c1.3-1.4,1.9-3.1,1.9-5.2
		c0-3.1-1.5-5.6-3.9-6.6c-1.2-0.5-2.9-0.8-5.1-0.8h-6.1v0.4h0.6c0.6,0,1,0.2,1.3,0.5c0.2,0.2,0.3,0.8,0.3,1.8v9.7
		c0,0.8-0.1,1.4-0.2,1.6c-0.3,0.4-0.7,0.6-1.4,0.6h-0.6V39H308.3z"/>
	<path class="st0" d="M322.4,33.2l2.6-6.1l2.5,6.1H322.4z M328.8,36.1c0.3,0.7,0.4,1.2,0.4,1.5c0,0.5-0.3,0.9-1.5,0.9V39h5.9v-0.4
		c-0.6,0-1.1-0.2-1.4-0.5c-0.3-0.3-0.7-1-1.1-2l-5.2-12.4h-0.4L320.1,36c-0.5,1.1-0.9,1.8-1.2,2.2c-0.2,0.2-0.6,0.3-1.2,0.4V39h4.7
		v-0.4c-1.4-0.1-1.7-0.5-1.7-1c0-0.3,0.1-0.7,0.4-1.3l1-2.4h5.8L328.8,36.1z"/>
	<path class="st0" d="M341.8,24v0.4l0.2,0c1,0.2,1.4,0.6,1.4,1c0,0.3-0.2,0.9-0.5,1.8l-3.5,8.7l-3.8-8.8c-0.3-0.8-0.5-1.3-0.5-1.7
		c0-0.5,0.3-0.9,1.7-1V24h-6.1v0.4c0.9,0.1,1.4,0.3,1.8,0.8c0.1,0.2,0.3,0.6,0.6,1.2l5.6,12.9h0.4l5.2-12.8c0.3-0.7,0.7-1.3,1-1.7
		c0.3-0.2,0.7-0.4,1.2-0.5V24H341.8z"/>
	<path class="st0" d="M354.9,38.6c-0.4,0-0.7-0.1-1-0.3c-0.2-0.1-0.4-0.3-0.5-0.5c-0.1-0.2-0.2-0.7-0.2-1.5v-9.7
		c0-0.9,0.1-1.5,0.3-1.7c0.3-0.4,0.7-0.5,1.3-0.5h0.5V24H349v0.4h0.5c0.4,0,0.7,0.1,1,0.2c0.2,0.1,0.4,0.3,0.5,0.5
		c0.1,0.2,0.2,0.8,0.2,1.5v9.7c0,0.9-0.1,1.4-0.3,1.7c-0.3,0.4-0.7,0.5-1.4,0.5H349V39h6.4v-0.4H354.9z"/>
	<path class="st0" d="M362.1,25.2c0.8-0.2,1.6-0.3,2.3-0.3c1.8,0,3.2,0.6,4.3,1.8c1.1,1.2,1.7,2.8,1.7,4.9c0,2.1-0.6,3.7-1.7,4.9
		c-1.1,1.2-2.6,1.8-4.3,1.8c-0.6,0-1.4-0.1-2.4-0.3V25.2z M364.6,39c2.9,0,5.1-0.8,6.5-2.4c1.3-1.4,1.9-3.1,1.9-5.2
		c0-3.1-1.5-5.6-3.9-6.6c-1.2-0.5-2.9-0.8-5.1-0.8h-6.1v0.4h0.6c0.6,0,1,0.2,1.3,0.5c0.2,0.2,0.3,0.8,0.3,1.8v9.7
		c0,0.8-0.1,1.4-0.2,1.6c-0.3,0.4-0.7,0.6-1.4,0.6h-0.6V39H364.6z"/>
	<path class="st0" d="M390.2,24v0.4l0.2,0c1,0.2,1.4,0.6,1.4,1c0,0.3-0.2,0.9-0.5,1.8l-3.5,8.7l-3.8-8.8c-0.3-0.8-0.5-1.3-0.5-1.7
		c0-0.5,0.3-0.9,1.7-1V24h-6.1v0.4c0.9,0.1,1.4,0.3,1.8,0.8c0.1,0.2,0.3,0.6,0.6,1.2l5.6,12.9h0.4l5.2-12.8c0.3-0.7,0.7-1.3,1-1.7
		c0.3-0.2,0.7-0.4,1.2-0.5V24H390.2z"/>
	<path class="st0" d="M399.9,33.2l2.6-6.1l2.5,6.1H399.9z M406.2,36.1c0.3,0.7,0.4,1.2,0.4,1.5c0,0.5-0.3,0.9-1.5,0.9V39h5.9v-0.4
		c-0.6,0-1.1-0.2-1.4-0.5c-0.3-0.3-0.7-1-1.1-2l-5.2-12.4h-0.4L397.6,36c-0.5,1.1-0.9,1.8-1.2,2.2c-0.2,0.2-0.6,0.3-1.2,0.4V39h4.7
		v-0.4c-1.4-0.1-1.7-0.5-1.7-1c0-0.3,0.1-0.7,0.4-1.3l1-2.4h5.8L406.2,36.1z"/>
	<path class="st0" d="M421.2,23.7c-0.1,0.7-0.4,0.9-0.7,0.9c-0.2,0-0.5-0.1-0.9-0.3c-0.9-0.4-1.7-0.6-2.5-0.6
		c-1.3,0-2.3,0.4-3.1,1.2c-0.8,0.8-1.2,1.7-1.2,2.8c0,1.2,0.6,2.2,1.7,3.1c0.5,0.4,1.4,1,2.7,1.7c1.3,0.7,2.1,1.2,2.4,1.4
		c0.9,0.6,1.3,1.4,1.3,2.2c0,1.3-1.2,2.5-3,2.5c-1.6,0-3-0.8-3.7-1.9c-0.3-0.5-0.6-1.4-0.8-2.4h-0.4v5.1h0.4
		c0.1-0.7,0.3-0.9,0.7-0.9c0.2,0,0.6,0.1,1.4,0.4c0.7,0.2,1.2,0.4,1.4,0.4c0.4,0.1,0.8,0.1,1.2,0.1c1.4,0,2.5-0.4,3.4-1.2
		c0.9-0.8,1.3-1.8,1.3-2.9c0-1.2-0.6-2.3-1.6-3.1c-0.5-0.4-1.5-1-2.9-1.7c-1.7-0.9-2.8-1.7-3.3-2.2c-0.3-0.4-0.5-0.8-0.5-1.2
		c0-0.6,0.2-1.1,0.7-1.6c0.5-0.5,1.2-0.7,1.9-0.7c1.4,0,2.7,0.7,3.4,1.9c0.3,0.6,0.6,1.4,0.7,2.4h0.4v-5.2H421.2z"/>
	<path class="st0" d="M428.4,26.7c0-0.7,0-1.2,0.1-1.4c0.1-0.2,0.2-0.4,0.5-0.5c0.3-0.2,0.7-0.2,1-0.2h0.5V24h-6.4v0.4h0.5
		c0.3,0,0.7,0.1,1,0.2c0.2,0.1,0.4,0.3,0.5,0.5c0.1,0.2,0.2,0.8,0.2,1.5v9.7c0,0.9-0.1,1.4-0.3,1.7c-0.3,0.4-0.7,0.5-1.3,0.5h-0.5
		V39h6.4v-0.4H430c-0.4,0-0.7-0.1-1-0.3c-0.2-0.1-0.4-0.3-0.5-0.5c-0.1-0.2-0.1-0.7-0.1-1.5v-4.6h6.9v4.6c0,0.9-0.1,1.4-0.3,1.7
		c-0.3,0.4-0.7,0.5-1.3,0.5h-0.5V39h6.4v-0.4h-0.5c-0.3,0-0.7-0.1-1-0.3c-0.2-0.1-0.4-0.3-0.5-0.5c-0.1-0.2-0.1-0.7-0.1-1.5v-9.7
		c0-0.7,0-1.2,0.1-1.4c0.1-0.2,0.2-0.4,0.5-0.5c0.3-0.2,0.7-0.2,1-0.2h0.5V24h-6.4v0.4h0.5c0.3,0,0.7,0.1,1,0.2
		c0.2,0.1,0.4,0.3,0.5,0.5c0.1,0.2,0.1,0.8,0.1,1.5V31h-6.9V26.7z"/>
	<path class="st0" d="M444.9,33.2l2.6-6.1l2.5,6.1H444.9z M451.3,36.1c0.3,0.7,0.4,1.2,0.4,1.5c0,0.5-0.3,0.9-1.5,0.9V39h5.9v-0.4
		c-0.6,0-1.1-0.2-1.4-0.5c-0.3-0.3-0.7-1-1.1-2l-5.2-12.4h-0.4L442.6,36c-0.5,1.1-0.9,1.8-1.2,2.2c-0.2,0.2-0.6,0.3-1.2,0.4V39h4.7
		v-0.4c-1.4-0.1-1.7-0.5-1.7-1c0-0.3,0.1-0.7,0.4-1.3l1-2.4h5.8L451.3,36.1z"/>
	<path class="st0" d="M460.9,25.2c0.8-0.2,1.6-0.3,2.3-0.3c1.8,0,3.2,0.6,4.3,1.8c1.1,1.2,1.7,2.8,1.7,4.9c0,2.1-0.6,3.7-1.7,4.9
		c-1.1,1.2-2.6,1.8-4.3,1.8c-0.6,0-1.4-0.1-2.4-0.3V25.2z M463.3,39c2.9,0,5.1-0.8,6.5-2.4c1.3-1.4,1.9-3.1,1.9-5.2
		c0-3.1-1.5-5.6-3.9-6.6c-1.2-0.5-2.9-0.8-5.1-0.8h-6.1v0.4h0.6c0.6,0,1,0.2,1.3,0.5c0.2,0.2,0.3,0.8,0.3,1.8v9.7
		c0,0.8-0.1,1.4-0.2,1.6c-0.3,0.4-0.7,0.6-1.4,0.6h-0.6V39H463.3z"/>
	<path class="st0" d="M474.4,24l-0.3,3.7h0.4c0.2-0.9,0.3-1.5,0.5-1.8c0.2-0.3,0.5-0.6,0.8-0.7c0.4-0.2,1-0.3,1.7-0.3h4.8l-9.6,13.7
		V39H485l0.7-4l-0.4,0c-0.4,1.2-0.8,2.1-1.4,2.5c-0.5,0.4-1.2,0.6-2.1,0.6h-6.2l9.8-14.1H474.4z"/>
	<path class="st0" d="M495.1,24.9c0.7,0,1.2,0,1.5,0.2c0.4,0.2,0.7,0.4,0.8,0.7c0.2,0.3,0.4,0.8,0.5,1.6h0.4l-0.2-3.3h-11.5v0.4h0.5
		c0.6,0,1.1,0.1,1.3,0.4c0.2,0.2,0.3,0.8,0.3,1.8v9.7c0,1.4-0.1,1.8-0.6,2c-0.3,0.2-0.7,0.3-1,0.3h-0.5V39h11.5l1.3-3.8h-0.5
		c-0.5,0.9-0.9,1.6-1.4,2.1c-0.3,0.3-0.7,0.6-1.1,0.7c-0.4,0.1-1,0.2-1.8,0.2h-2.5c-0.8,0-1-0.2-1.2-0.5c-0.1-0.2-0.1-0.6-0.1-1.2
		v-4.9h3.3c1.3,0,1.8,0.3,2.1,0.8c0.1,0.2,0.2,0.7,0.3,1.4h0.4v-5.2h-0.4c0,0.9-0.2,1.4-0.6,1.8c-0.3,0.3-0.9,0.4-1.7,0.4H491v-5.9
		H495.1z"/>
	<path class="st1" d="M302.3,44.8h2.4c0.9,0,1.5,0.2,2,0.6c0.5,0.4,0.7,0.9,0.7,1.7c0,0.7-0.2,1.3-0.7,1.7c-0.4,0.4-1.1,0.6-2,0.6
		h-1.3v3h-1.1V44.8z M303.4,45.6v2.8h1.3c0.5,0,0.9-0.1,1.1-0.4c0.3-0.2,0.4-0.6,0.4-1c0-0.4-0.1-0.8-0.4-1
		c-0.3-0.2-0.7-0.4-1.1-0.4H303.4z"/>
	<polygon class="st1" points="309.6,44.8 310.7,44.8 310.7,47.8 314.6,47.8 314.6,44.8 315.6,44.8 315.6,52.2 314.6,52.2 
		314.6,48.7 310.7,48.7 310.7,52.2 309.6,52.2 	"/>
	<polygon class="st1" points="317.5,44.8 318.6,44.8 320.8,47.8 323,44.8 324.1,44.8 321.3,48.7 321.3,52.2 320.3,52.2 320.3,48.7 	
		"/>
	<polygon class="st1" points="324.9,44.8 331.5,44.8 331.5,45.6 328.7,45.6 328.7,52.2 327.6,52.2 327.6,45.6 324.9,45.6 	"/>
	<path class="st1" d="M336.5,44.6c1.1,0,2,0.3,2.6,1c0.7,0.7,1,1.6,1,2.8c0,1.2-0.3,2.1-1,2.8c-0.7,0.7-1.5,1-2.6,1
		c-1.1,0-2-0.3-2.6-1c-0.7-0.7-1-1.6-1-2.8c0-1.2,0.3-2.1,1-2.8C334.5,45,335.4,44.6,336.5,44.6 M336.5,45.5c-0.8,0-1.4,0.3-1.8,0.8
		c-0.5,0.5-0.7,1.3-0.7,2.2c0,0.9,0.2,1.7,0.7,2.2c0.5,0.5,1.1,0.8,1.8,0.8c0.8,0,1.4-0.3,1.8-0.8c0.5-0.5,0.7-1.3,0.7-2.2
		c0-0.9-0.2-1.7-0.7-2.2C337.9,45.7,337.3,45.5,336.5,45.5"/>
	<rect x="342.4" y="49" class="st1" width="2.8" height="0.8"/>
	<path class="st1" d="M347.2,44.8h2.7c0.8,0,1.4,0.2,1.9,0.5c0.4,0.3,0.7,0.8,0.7,1.4c0,0.5-0.1,0.8-0.3,1.1c-0.2,0.3-0.6,0.4-1,0.5
		c0.5,0.1,0.9,0.3,1.2,0.7c0.3,0.3,0.4,0.8,0.4,1.3c0,0.7-0.2,1.2-0.7,1.5c-0.5,0.4-1.2,0.5-2,0.5h-2.8V44.8z M348.3,45.6v2.2h1.6
		c0.5,0,0.9-0.1,1.2-0.3c0.3-0.2,0.4-0.5,0.4-0.8c0-0.4-0.1-0.7-0.4-0.8c-0.3-0.2-0.6-0.3-1.2-0.3H348.3z M348.3,48.7v2.7h1.7
		c0.6,0,1-0.1,1.3-0.3c0.3-0.2,0.4-0.6,0.4-1c0-0.5-0.1-0.8-0.4-1c-0.3-0.2-0.7-0.3-1.3-0.3H348.3z"/>
	<path class="st1" d="M357.5,44.8h1.2l3,7.4h-1.1l-0.7-1.9h-3.5l-0.7,1.9h-1.1L357.5,44.8z M358.1,45.8l-1.4,3.7h2.9L358.1,45.8z"/>
	<polygon class="st1" points="363.6,44.8 364.7,44.8 364.7,51.4 368.5,51.4 368.5,52.2 363.6,52.2 	"/>
	<polygon class="st1" points="370.4,44.8 371.9,44.8 375.3,51 375.3,44.8 376.4,44.8 376.4,52.2 374.9,52.2 371.5,46 371.5,52.2 
		370.4,52.2 	"/>
	<polygon class="st1" points="379.3,44.8 384.3,44.8 384.3,45.6 380.4,45.6 380.4,47.8 384.1,47.8 384.1,48.7 380.4,48.7 
		380.4,51.4 384.4,51.4 384.4,52.2 379.3,52.2 	"/>
	<path class="st1" d="M390.1,44.6c1.1,0,2,0.3,2.6,1c0.7,0.7,1,1.6,1,2.8c0,1.2-0.3,2.1-1,2.8c-0.7,0.7-1.5,1-2.6,1
		c-1.1,0-2-0.3-2.6-1c-0.7-0.7-1-1.6-1-2.8c0-1.2,0.3-2.1,1-2.8C388.1,45,389,44.6,390.1,44.6 M390.1,45.5c-0.8,0-1.4,0.3-1.8,0.8
		c-0.5,0.5-0.7,1.3-0.7,2.2c0,0.9,0.2,1.7,0.7,2.2c0.5,0.5,1.1,0.8,1.8,0.8c0.8,0,1.4-0.3,1.8-0.8c0.5-0.5,0.7-1.3,0.7-2.2
		c0-0.9-0.2-1.7-0.7-2.2C391.5,45.7,390.9,45.5,390.1,45.5"/>
	<polygon class="st1" points="395.1,44.8 401.8,44.8 401.8,45.6 399,45.6 399,52.2 397.9,52.2 397.9,45.6 395.1,45.6 	"/>
	<polygon class="st1" points="403.6,44.8 404.7,44.8 404.7,47.8 408.5,47.8 408.5,44.8 409.6,44.8 409.6,52.2 408.5,52.2 
		408.5,48.7 404.7,48.7 404.7,52.2 403.6,52.2 	"/>
	<polygon class="st1" points="412.5,44.8 417.5,44.8 417.5,45.6 413.6,45.6 413.6,47.8 417.3,47.8 417.3,48.7 413.6,48.7 
		413.6,51.4 417.6,51.4 417.6,52.2 412.5,52.2 	"/>
	<path class="st1" d="M421.2,45.6v2.6h1.3c0.5,0,0.9-0.1,1.2-0.3c0.3-0.2,0.4-0.6,0.4-1c0-0.4-0.1-0.8-0.4-1
		c-0.3-0.2-0.6-0.3-1.2-0.3H421.2z M423.9,48.7c0.2,0.1,0.5,0.2,0.7,0.5c0.2,0.2,0.4,0.6,0.6,1l1.1,2h-1.1l-1-1.9
		c-0.3-0.5-0.5-0.8-0.8-1c-0.2-0.2-0.6-0.2-1-0.2h-1.2v3.1h-1.1v-7.4h2.4c0.9,0,1.6,0.2,2,0.5c0.4,0.4,0.7,0.9,0.7,1.6
		c0,0.5-0.1,0.9-0.3,1.2C424.6,48.4,424.3,48.6,423.9,48.7"/>
	<path class="st1" d="M430,44.8h1.2l3,7.4h-1.1l-0.7-1.9h-3.5l-0.7,1.9H427L430,44.8z M430.6,45.8l-1.4,3.7h2.9L430.6,45.8z"/>
	<path class="st1" d="M436.2,44.8h2.4c0.9,0,1.5,0.2,2,0.6c0.5,0.4,0.7,0.9,0.7,1.7c0,0.7-0.2,1.3-0.7,1.7c-0.4,0.4-1.1,0.6-2,0.6
		h-1.3v3h-1.1V44.8z M437.2,45.6v2.8h1.3c0.5,0,0.9-0.1,1.1-0.4c0.3-0.2,0.4-0.6,0.4-1c0-0.4-0.1-0.8-0.4-1
		c-0.3-0.2-0.7-0.4-1.1-0.4H437.2z"/>
	<polygon class="st1" points="442.2,44.8 443.3,44.8 445.5,47.8 447.6,44.8 448.8,44.8 446,48.7 446,52.2 444.9,52.2 444.9,48.7 	
		"/>
	<path class="st1" d="M459.9,45.3v1.1c-0.4-0.3-0.7-0.6-1.1-0.7c-0.4-0.2-0.8-0.2-1.3-0.2c-0.9,0-1.6,0.3-2.1,0.8
		c-0.5,0.5-0.7,1.3-0.7,2.3c0,1,0.2,1.7,0.7,2.2c0.5,0.5,1.2,0.8,2.1,0.8c0.5,0,0.9-0.1,1.3-0.2c0.4-0.2,0.8-0.4,1.1-0.7v1.1
		c-0.4,0.2-0.8,0.4-1.2,0.5c-0.4,0.1-0.9,0.2-1.3,0.2c-1.2,0-2.1-0.3-2.8-1c-0.7-0.7-1-1.6-1-2.8c0-1.2,0.3-2.1,1-2.8
		c0.7-0.7,1.6-1,2.8-1c0.5,0,0.9,0.1,1.3,0.2C459.2,44.9,459.6,45.1,459.9,45.3"/>
	<polygon class="st1" points="462.4,44.8 467.4,44.8 467.4,45.6 463.5,45.6 463.5,47.8 467.2,47.8 467.2,48.7 463.5,48.7 
		463.5,51.4 467.4,51.4 467.4,52.2 462.4,52.2 	"/>
	<polygon class="st1" points="470,44.8 471.4,44.8 474.9,51 474.9,44.8 475.9,44.8 475.9,52.2 474.5,52.2 471,46 471,52.2 470,52.2 
			"/>
	<polygon class="st1" points="477.8,44.8 484.4,44.8 484.4,45.6 481.6,45.6 481.6,52.2 480.6,52.2 480.6,45.6 477.8,45.6 	"/>
	<polygon class="st1" points="486.3,44.8 491.2,44.8 491.2,45.6 487.3,45.6 487.3,47.8 491.1,47.8 491.1,48.7 487.3,48.7 
		487.3,51.4 491.3,51.4 491.3,52.2 486.3,52.2 	"/>
	<path class="st1" d="M494.9,45.6v2.6h1.3c0.5,0,0.9-0.1,1.2-0.3c0.3-0.2,0.4-0.6,0.4-1c0-0.4-0.1-0.8-0.4-1
		c-0.3-0.2-0.6-0.3-1.2-0.3H494.9z M497.6,48.7c0.2,0.1,0.5,0.2,0.7,0.5c0.2,0.2,0.4,0.6,0.6,1l1.1,2h-1.1l-1-1.9
		c-0.3-0.5-0.5-0.8-0.8-1c-0.2-0.2-0.6-0.2-1-0.2h-1.2v3.1h-1.1v-7.4h2.4c0.9,0,1.6,0.2,2,0.5c0.4,0.4,0.7,0.9,0.7,1.6
		c0,0.5-0.1,0.9-0.3,1.2C498.4,48.4,498,48.6,497.6,48.7"/>
	<path class="st0" d="M12.8,37.3C11.4,37.7,10,38,8.7,38c-4,0-6.3-3.2-6.3-9.1v-0.5c0-1.9,0.3-3.2,0.7-3.9c0.5-0.7,1.1-1.1,1.9-1.1
		c1.1,0,2,0.7,2.8,2c-0.4,0.9-0.6,1.7-0.6,2.5v1.7c0,3.4,2.1,5.2,5.1,5.2c1.4,0,2.6-0.4,3.6-1.2c1-0.8,1.5-2.1,1.5-3.9v-1.9
		c0-1.9-0.5-3.2-1.5-3.9c-0.9-0.7-2.2-1.1-3.6-1.1c-1.9,0-3.2,0.6-4.1,1.8c-0.7-1.2-1.8-1.8-3.2-1.8c-3.3,0-5.1,2.1-5.1,5.7v0.2
		c0,3.4,0.8,6.1,2.5,8c1.7,1.9,3.8,2.8,6.2,2.8h4.1V37.3z M15,29.6c0,1.1-0.1,2.1-0.5,3.1c-0.3,0.9-1.1,1.4-2.2,1.4
		c-1.1,0-1.9-0.5-2.2-1.4c-0.3-0.9-0.5-2-0.5-3.1v-1.8c0-1.7,0.2-2.8,0.7-3.4c0.5-0.6,1.1-0.9,2-0.9c0.8,0,1.5,0.3,2,0.9
		c0.5,0.6,0.7,1.8,0.7,3.5V29.6z"/>
	<path class="st0" d="M32.4,33.4c0-1.8-0.9-3.5-2.8-5.2c-1.7-1.5-2.5-3.1-2.5-4.7v-0.9h-2.3v0.9c0,1.3,0.9,2.8,2.7,4.4
		c1.7,1.5,2.5,3.3,2.5,5.5v1.7c0,2.3-0.9,3.8-3,3.8c-1,0-1.8-0.4-2.3-1.3c-0.5-0.8-0.8-1.7-0.8-2.5v-0.8c0-0.9,0.1-1.5,0.4-2.1
		l-1.4-0.7c-0.9,1.1-1.4,2-1.4,2.7v0.8c0,3.1,2.2,4.5,5.5,4.6c3.4,0,5.4-1.8,5.4-4.5V33.4z"/>
	<path class="st0" d="M47.2,33.9c0-1.8-0.9-3-2.8-3.5v-0.2c1.7-1,2.5-2.2,2.5-3.4V26c0-2.2-2-3.4-5.1-3.4c-3.6,0-5.1,1.2-5.1,3.1
		v0.6c0,0.7,0.4,1.5,1.1,2.2l1.5-0.6c-0.3-0.5-0.4-1.1-0.4-1.7v-0.4c0-1.3,1-2.5,3-2.5c1.7,0,2.6,1.1,2.6,2.8v0.5
		c0,2.1-0.5,3.2-1.4,3.2l-2.5-0.2v1.5l2.4-0.2c1.1,0,1.7,1,1.7,3.1v2c0,1.8-0.9,3-3,3c-1,0-1.7-0.3-2.3-0.9
		c-0.5-0.6-0.8-1.3-0.8-2.1v-0.7c0-0.9,0.2-1.6,0.6-2l-0.9-0.5c-1.4,0.8-2.1,1.6-2.1,2.5V36c0,0.9,0.5,1.8,1.5,2.5
		c1,0.7,2.3,1.1,3.9,1.1c1.5,0,2.8-0.3,3.8-1c1.1-0.7,1.6-1.5,1.6-2.7V33.9z"/>
	<path class="st0" d="M62.4,29c0-2.4-0.5-4.1-1.4-5c-0.9-0.9-2.2-1.4-4-1.4c-1.7,0-3,0.5-4,1.4c-1,0.9-1.5,2.5-1.5,4.9v4.3
		c0,3.1,1,5.3,3.1,6.4h1.2c-1.3-1.2-1.9-3.1-1.9-5.8V29c0-2.1,0.2-3.6,0.7-4.4c0.5-0.8,1.3-1.2,2.3-1.2c0.9,0,1.6,0.4,2.2,1.2
		c0.6,0.8,0.8,2.3,0.8,4.4v4.8c0,2.7-0.6,4.6-1.9,5.8h1.2c2.1-1.2,3.1-3.3,3.1-6.4L62.4,29z"/>
	<path class="st0" d="M85.1,28.9c0-2.4-0.4-4-1.3-4.9c-0.8-0.9-2.1-1.3-3.7-1.3c-1.5,0-2.7,0.7-3.4,2c-1.1-1.4-2.6-2-4.4-2
		c-3.7,0-5.4,1.8-5.4,5.9v4.8c0,4.4,1.7,6.3,5.3,6.4c3.5,0,5.3-2.1,5.3-6v-6.9c0-2.2,1.1-3.4,2.6-3.4c1.5,0,2.5,1.3,2.5,4.7l0,4.5
		c0,2.9-0.9,5.3-2.8,7l1.5,0c2.4-1.7,3.7-4.1,3.7-7.1L85.1,28.9z M75.2,33.6c0,3.2-0.9,5.3-2.9,5.3c-1.9,0-2.9-2.1-2.9-5.8v-4.1
		c0-3.6,0.9-5.6,3-5.6c1.5,0,2.8,1,2.8,3.4V33.6z"/>
	<path class="st0" d="M105.5,33.9c0-1.8-0.9-3-2.8-3.5v-0.2c1.7-1,2.5-2.2,2.5-3.4V26c0-2.2-2-3.4-5.1-3.4c-3.6,0-5.1,1.2-5.1,3.1
		v0.6c0,0.7,0.4,1.5,1.1,2.2l1.5-0.6c-0.3-0.5-0.4-1.1-0.4-1.7v-0.4c0-1.3,1-2.5,3-2.5c1.7,0,2.6,1.1,2.6,2.8v0.5
		c0,2.1-0.5,3.2-1.4,3.2L99,29.6v1.5l2.4-0.2c1.1,0,1.7,1,1.7,3.1v2c0,1.8-0.9,3-3,3c-1,0-1.7-0.3-2.3-0.9c-0.5-0.6-0.8-1.3-0.8-2.1
		v-0.7c0-0.9,0.2-1.6,0.6-2l-0.9-0.5c-1.4,0.8-2.1,1.6-2.1,2.5V36c0,0.9,0.5,1.8,1.5,2.5c1,0.7,2.3,1.1,3.9,1.1c1.5,0,2.8-0.3,3.8-1
		c1.1-0.7,1.6-1.5,1.6-2.7V33.9z"/>
	<path class="st0" d="M120.4,33.4c0-1.8-0.9-3.5-2.8-5.2c-1.7-1.5-2.5-3.1-2.5-4.7v-0.9h-2.3v0.9c0,1.3,0.9,2.8,2.7,4.4
		c1.7,1.5,2.5,3.3,2.5,5.5v1.7c0,2.3-0.9,3.8-3,3.8c-1,0-1.8-0.4-2.3-1.3c-0.5-0.8-0.8-1.7-0.8-2.5v-0.8c0-0.9,0.1-1.5,0.4-2.1
		l-1.4-0.7c-0.9,1.1-1.4,2-1.4,2.7v0.8c0,3.1,2.2,4.5,5.5,4.6c3.4,0,5.4-1.8,5.4-4.5V33.4z"/>
	<path class="st0" d="M136.2,26.3c0-2.2-0.9-3.6-3.7-3.6c-1,0-1.9,0.4-2.5,1.3c-0.7-0.9-1.6-1.3-2.8-1.3c-0.7,0-1.3,0.2-1.9,0.6
		c-0.6,0.4-0.9,0.9-0.9,1.6v1.4h2v-1.4c0-1,0.4-1.6,1.4-1.6c1,0,1.2,0.9,1.2,2.4v0.4h2.1v-0.4c0-1.5,0.2-2.4,1.3-2.4
		c0.8,0,1.2,0.1,1.4,0.4c0.1,0.3,0.2,0.8,0.2,1.7l0,4.4c-1-0.9-2.1-1.4-3.4-1.4c-1.7,0-3.1,0.5-4.2,1.4c-1,0.9-1.5,2-1.5,3.3v1.7
		c0,1.2,0.5,2.3,1.6,3.3c1,1,2.4,1.5,4.1,1.5c3.7,0,5.7-1.6,5.7-4.9V26.3z M133.8,35.1c0,0.7-0.3,1.6-0.8,2.5
		c-0.6,0.9-1.4,1.4-2.4,1.4c-1,0-1.8-0.5-2.4-1.4c-0.6-0.9-0.9-1.8-0.9-2.7v-1.4c0-1,0.3-1.9,0.8-2.8c0.6-0.9,1.4-1.4,2.5-1.4
		c2.1,0,3.2,1.4,3.2,4V35.1z"/>
	<path class="st0" d="M151.4,33.4c0-1.8-0.9-3.5-2.8-5.2c-1.7-1.5-2.5-3.1-2.5-4.7v-0.9h-2.3v0.9c0,1.3,0.9,2.8,2.7,4.4
		c1.7,1.5,2.5,3.3,2.5,5.5v1.7c0,2.3-0.9,3.8-3,3.8c-1,0-1.8-0.4-2.3-1.3c-0.5-0.8-0.8-1.7-0.8-2.5v-0.8c0-0.9,0.1-1.5,0.4-2.1
		l-1.4-0.7c-0.9,1.1-1.4,2-1.4,2.7v0.8c0,3.1,2.2,4.5,5.5,4.6c3.4,0,5.4-1.8,5.4-4.5V33.4z"/>
	<path class="st0" d="M166.4,22.7l-2.4,0.4v6.3c-0.7-1-1.7-1.5-3-1.5c-3.6,0-5.5,1.5-5.5,4.4v2.5c0,1.2,0.4,2.3,1.3,3.2
		c0.9,1,2.3,1.4,4.2,1.4c1.8,0,3.2-0.5,4.1-1.4c0.9-1,1.4-2,1.4-3.1V22.7z M164,35c0,0.9-0.2,1.8-0.7,2.6c-0.4,0.8-1.2,1.2-2.3,1.2
		c-2.1,0-3.1-1.5-3.1-3.8v-2.6c0-2.5,1.1-3.9,3-3.9c0.9,0,1.7,0.4,2.2,1.1c0.6,0.7,0.8,1.5,0.8,2.3V35z"/>
	<path class="st0" d="M181.8,29c0-2.4-0.5-4.1-1.4-5c-0.9-0.9-2.2-1.4-4-1.4c-1.7,0-3,0.5-4,1.4c-1,0.9-1.5,2.5-1.5,4.9v4.3
		c0,3.1,1,5.3,3.1,6.4h1.2c-1.3-1.2-1.9-3.1-1.9-5.8V29c0-2.1,0.2-3.6,0.7-4.4c0.5-0.8,1.3-1.2,2.3-1.2c0.9,0,1.6,0.4,2.2,1.2
		c0.6,0.8,0.8,2.3,0.8,4.4v4.8c0,2.7-0.6,4.6-1.9,5.8h1.2c2.1-1.2,3.1-3.3,3.1-6.4L181.8,29z"/>
	<path class="st0" d="M197.3,34.3c0-1.4-0.5-2.5-1.6-3.3c-1.1-0.7-1.6-1.5-1.6-2.2c0-0.5,0.3-0.9,1-1.5l-1.5-0.7
		c-0.6,0.7-0.9,1.5-0.9,2.1c0,0.8,0.4,1.7,1.1,2.6c0.7,0.9,1.1,1.9,1.1,3v0.5c0,1.2-0.2,2.2-0.8,3c-0.5,0.8-1.3,1.2-2.3,1.2
		c-2.2,0-3-1.6-3-4.4V23.1l-2.4-0.4v11.8c0,3.4,2.2,5,5.4,5c1.7,0,3-0.4,4-1.3c1-0.9,1.5-2.1,1.5-3.6V34.3z"/>
	<path class="st1" d="M2.5,45c-0.4,0-0.8,0.2-1.1,0.5C1.1,45.9,1,46.5,1,47.2c0,0.5,0.1,1,0.4,1.4C1.7,49,2,49.2,2.5,49.2
		c0.5,0,0.9-0.2,1.2-0.6c0.3-0.4,0.4-0.9,0.4-1.4c0-0.7-0.1-1.2-0.4-1.6C3.5,45.2,3.1,45,2.5,45 M2.5,44.2c0.8,0,1.5,0.3,1.9,0.9
		c0.4-0.6,0.9-0.8,1.6-0.8c0.7,0,1.3,0.2,1.7,0.6c0.4,0.4,0.6,0.9,0.6,1.4c0,0.8-0.4,1.4-1.1,1.9c0.6,0.3,1,0.9,1,1.6
		c0,0.9-0.3,1.5-0.9,1.9c-0.6,0.4-1.4,0.6-2.4,0.6c-1.3,0-2.4-0.4-3.2-1.3l0.6-0.6c0.7,0.7,1.5,1,2.6,1c0.6,0,1.1-0.1,1.6-0.4
		c0.5-0.2,0.7-0.7,0.8-1.2c0-0.8-0.3-1.2-1-1.3v-0.8c0.8,0,1.1-0.5,1.1-1.4c0-0.4-0.1-0.7-0.3-0.9c-0.2-0.2-0.5-0.3-0.9-0.3
		c-0.5,0-0.9,0.2-1.1,0.8c0.2,0.5,0.2,0.9,0.2,1.3c0,0.8-0.2,1.5-0.7,2c-0.5,0.5-1.1,0.8-2,0.8c-0.8,0-1.4-0.3-1.8-0.8
		c-0.5-0.5-0.7-1.2-0.7-2c0-0.9,0.2-1.7,0.7-2.2C1.1,44.5,1.7,44.2,2.5,44.2"/>
	<path class="st1" d="M10.7,52.3c-0.7-1.4-1-2.8-1-4.3c0-1.1,0.2-2,0.7-2.7c0.5-0.7,1.1-1,1.9-1c0.8,0,1.4,0.4,1.9,1
		c0.5,0.7,0.7,1.6,0.7,2.7c0,1.5-0.3,2.9-1,4.3h-1.1c0.7-1.7,1.1-3.1,1.1-4.5c0-0.8-0.1-1.4-0.4-2c-0.3-0.5-0.7-0.8-1.2-0.8
		c-0.5,0-0.9,0.3-1.2,0.8c-0.3,0.5-0.4,1.2-0.4,2c0,1.3,0.4,2.8,1.1,4.5H10.7z"/>
	<path class="st1" d="M22.3,48.5c0-0.9-0.2-1.7-0.6-2.2c-0.4-0.5-0.9-0.8-1.5-0.9l0.1,3.2h-1l0.1-3.2c-0.6,0.1-1,0.4-1.5,0.9
		c-0.4,0.5-0.6,1.2-0.6,2.2c0,1,0.2,1.7,0.7,2.3c0.4,0.6,1,0.9,1.8,0.9c0.7,0,1.3-0.3,1.8-0.8C22,50.2,22.3,49.4,22.3,48.5
		 M23.3,48.5c0,1.2-0.3,2.1-0.9,2.8c-0.6,0.7-1.5,1.1-2.5,1.1c-1,0-1.9-0.4-2.5-1.1c-0.6-0.7-0.9-1.6-0.9-2.8c0-1.2,0.3-2.1,0.9-2.7
		c0.6-0.7,1.3-1,2.2-1.1l-0.1-0.4h0.9l-0.1,0.4c0.9,0.1,1.6,0.4,2.2,1.1C23,46.4,23.3,47.3,23.3,48.5"/>
	<path class="st1" d="M28.6,46.9c0-0.5-0.1-0.9-0.4-1.3c-0.3-0.4-0.7-0.6-1.1-0.6c-0.4,0-0.7,0.2-0.9,0.5c-0.3,0.3-0.4,1.2-0.4,2.6
		c0,1.6,0.7,3,2.2,4.2h-1.4c-1.2-1.1-1.8-2.5-1.8-4.2c0-1.6,0.2-2.7,0.7-3.2c0.4-0.5,1-0.7,1.7-0.7c0.9,0,1.5,0.5,2,1.4
		c0.5-1,1.1-1.4,2-1.4c0.7,0,1.2,0.2,1.7,0.7c0.4,0.5,0.7,1.5,0.7,3.2c0,1.7-0.6,3.1-1.8,4.2h-1.4c1.5-1.2,2.2-2.6,2.2-4.2
		c0-1.4-0.1-2.3-0.4-2.6c-0.3-0.3-0.6-0.5-0.9-0.5c-0.4,0-0.8,0.2-1.1,0.6c-0.3,0.4-0.4,0.8-0.4,1.3l0,2.3h-0.9V46.9z"/>
	<rect x="34.7" y="49" class="st1" width="2.7" height="0.8"/>
	<path class="st1" d="M41.4,47.3c-0.6,0-1,0.2-1.3,0.6c-0.3,0.4-0.5,0.9-0.5,1.5c0,0.7,0.2,1.2,0.5,1.6c0.3,0.4,0.7,0.6,1.2,0.6
		c0.5,0,0.9-0.2,1.2-0.6c0.3-0.4,0.5-0.9,0.5-1.6c0-0.6-0.2-1.1-0.5-1.5C42.2,47.5,41.9,47.3,41.4,47.3 M44,49.4
		c0,0.9-0.2,1.6-0.7,2.1c-0.5,0.5-1.1,0.8-2,0.8c-0.8,0-1.5-0.3-2-0.8c-0.5-0.5-0.7-1.2-0.7-2.1c0-0.9,0.2-1.6,0.7-2
		c0.4-0.5,1-0.8,1.8-0.8c0.1-0.5-0.1-0.8-0.5-1.1c-0.4-0.2-0.6-0.7-0.6-1.3h1.1c0,0.3,0.2,0.6,0.5,0.9c0.3,0.3,0.4,0.8,0.3,1.5
		c0.5,0.1,1,0.4,1.4,0.8C43.8,47.9,44,48.5,44,49.4"/>
	<path class="st1" d="M48.4,44.2c-0.1,0.8,0.2,1.5,1,2.2c0.8,0.7,1.2,1.6,1.2,2.7c0,1-0.2,1.7-0.7,2.3c-0.5,0.6-1.1,0.9-1.8,0.9
		c-0.8,0-1.4-0.3-1.9-0.9c-0.5-0.6-0.7-1.5-0.7-2.5c0-0.7,0.1-1.2,0.4-1.6l0.9,0.3c-0.2,0.4-0.3,0.9-0.3,1.3c0,0.7,0.2,1.4,0.5,1.8
		c0.3,0.5,0.7,0.7,1.2,0.7c0.4,0,0.7-0.2,1.1-0.6c0.3-0.4,0.5-1,0.5-1.6c0-1-0.4-1.8-1.1-2.4c-0.8-0.7-1.1-1.5-1.1-2.6L48.4,44.2z"
		/>
	<path class="st1" d="M61.2,49.8c0.9-0.9,1.4-1.8,1.4-2.6c0-0.7-0.1-1.2-0.4-1.6c-0.3-0.3-0.6-0.5-0.9-0.5c-0.4,0-0.7,0.1-1,0.4
		c-0.2,0.3-0.3,0.7-0.3,1.2v1.7h-1v-1.7c0-0.5-0.1-1-0.3-1.3c-0.2-0.3-0.5-0.5-0.8-0.5c-0.4,0-0.7,0.2-0.9,0.5
		c-0.2,0.3-0.3,0.8-0.3,1.3v1.6l-1,0v-1.6c0-0.6-0.1-1-0.4-1.3c-0.3-0.3-0.6-0.5-0.9-0.5c-0.3,0-0.6,0.2-0.8,0.5
		c-0.3,0.3-0.4,0.9-0.4,1.8c0,1.3,0.5,2.3,1.4,3c0.9,0.7,2.4,1.1,4.4,1.1h1.7v0.9h-1.9c-2,0-3.7-0.4-4.8-1.3
		c-1.2-0.9-1.7-2.1-1.7-3.6c0-1.1,0.2-1.9,0.7-2.3c0.5-0.5,1-0.7,1.6-0.7c0.8,0,1.4,0.4,1.8,1.2c0.2-0.9,0.8-1.3,1.7-1.3
		c0.8,0,1.3,0.4,1.7,1.3c0.4-0.8,1-1.2,1.8-1.2c0.6,0,1.1,0.2,1.6,0.7c0.5,0.5,0.7,1.2,0.7,2.1c0,0.8-0.4,1.7-1.1,2.6H61.2z"/>
	<path class="st1" d="M67.9,47.3c-0.5,0-0.9,0.2-1.2,0.6c-0.3,0.4-0.5,1-0.5,1.7c0,0.6,0.1,1.1,0.4,1.5c0.3,0.4,0.7,0.5,1.2,0.5
		c0.6,0,1-0.2,1.3-0.6c0.3-0.4,0.4-0.9,0.4-1.6c0-0.7-0.1-1.2-0.4-1.6C68.8,47.5,68.4,47.3,67.9,47.3 M67.9,46.5
		c0.8,0,1.5,0.3,2,0.8c0.5,0.5,0.7,1.2,0.7,2.1c0,0.9-0.2,1.7-0.7,2.2c-0.5,0.5-1.1,0.8-2,0.8c-0.8,0-1.5-0.2-1.9-0.7
		c-0.5-0.5-0.7-1.2-0.7-2.1v-3.7c0-1,0.6-1.5,1.7-1.5h3v0.8h-3c-0.5,0-0.8,0.2-0.8,0.7l0,1.5C66.7,46.8,67.2,46.5,67.9,46.5"/>
	<path class="st1" d="M77.1,49.9c0,0.7-0.2,1.3-0.7,1.8c-0.4,0.5-1,0.7-1.8,0.7c-0.8,0-1.4-0.2-1.9-0.7c-0.5-0.5-0.7-1.1-0.7-1.9
		c0-0.3,0.1-0.7,0.4-1.2l0.9,0.3c-0.2,0.3-0.3,0.6-0.3,0.9c0,0.6,0.2,1.1,0.5,1.4c0.3,0.3,0.7,0.5,1.1,0.5c0.5,0,0.9-0.2,1.1-0.5
		c0.3-0.3,0.4-0.7,0.4-1.2v-3.4c0-0.5-0.1-0.9-0.4-1.1c-0.3-0.2-0.6-0.4-1.1-0.4c-0.4,0-0.7,0.1-0.9,0.3c-0.2,0.2-0.3,0.5-0.3,0.8
		c0,0.3,0,0.6,0.2,0.8l-0.9,0.3c-0.2-0.4-0.2-0.7-0.3-1.1c0-0.5,0.2-0.9,0.6-1.3c0.4-0.4,0.9-0.6,1.7-0.6c0.8,0,1.4,0.2,1.8,0.6
		c0.4,0.4,0.6,1,0.6,1.7V49.9z"/>
	<path class="st1" d="M82.4,46.9c0-0.5-0.1-0.9-0.4-1.3c-0.3-0.4-0.6-0.6-1.1-0.6c-0.4,0-0.7,0.2-0.9,0.5c-0.3,0.3-0.4,1.2-0.4,2.6
		c0,1.6,0.7,3,2.2,4.2h-1.4c-1.2-1.1-1.8-2.5-1.8-4.2c0-1.6,0.2-2.7,0.7-3.2c0.4-0.5,1-0.7,1.7-0.7c0.9,0,1.5,0.5,2,1.4
		c0.5-1,1.1-1.4,2-1.4c0.7,0,1.2,0.2,1.7,0.7c0.4,0.5,0.7,1.5,0.7,3.2c0,1.7-0.6,3.1-1.8,4.2H84c1.5-1.2,2.2-2.6,2.2-4.2
		c0-1.4-0.1-2.3-0.4-2.6c-0.3-0.3-0.6-0.5-0.9-0.5c-0.4,0-0.8,0.2-1.1,0.6c-0.3,0.4-0.4,0.8-0.4,1.3l0,2.3h-0.9V46.9z"/>
	<path class="st1" d="M91.3,45c-0.6,0-1.1,0.3-1.3,0.9c-0.3,0.6-0.4,1.4-0.4,2.4c0,1,0.1,1.8,0.4,2.4c0.2,0.6,0.7,0.9,1.3,0.9
		c0.6,0,1.1-0.3,1.3-0.9c0.3-0.6,0.4-1.4,0.4-2.4c0-1-0.1-1.8-0.4-2.4C92.4,45.3,92,45,91.3,45 M91.3,44.2c0.9,0,1.6,0.5,2.1,1.6
		c0.5-1.1,1.1-1.6,1.9-1.6c0.9,0,1.6,0.3,2,1c0.4,0.7,0.6,1.6,0.6,2.7c0,1.9-0.5,3.3-1.6,4.3H95c1.3-0.9,1.9-2.3,1.9-4.2
		c0-1-0.1-1.7-0.3-2.3c-0.2-0.6-0.6-0.9-1.2-0.9c-0.5,0-1,0.6-1.5,1.8c0.1,0.6,0.2,1.2,0.2,1.6c0,1.3-0.2,2.3-0.6,3
		c-0.4,0.7-1.1,1.1-2,1.1c-0.9,0-1.6-0.4-2-1.1c-0.4-0.7-0.6-1.7-0.6-3c0-1.3,0.2-2.3,0.6-3C89.7,44.6,90.4,44.2,91.3,44.2"/>
	<path class="st1" d="M104.4,49.9c0,0.7-0.2,1.3-0.7,1.8c-0.4,0.5-1,0.7-1.8,0.7c-0.8,0-1.4-0.2-1.9-0.7c-0.5-0.5-0.7-1.1-0.7-1.9
		c0-0.3,0.1-0.7,0.4-1.2l0.9,0.3c-0.2,0.3-0.3,0.6-0.3,0.9c0,0.6,0.2,1.1,0.5,1.4c0.3,0.3,0.7,0.5,1.1,0.5c0.5,0,0.9-0.2,1.1-0.5
		c0.3-0.3,0.4-0.7,0.4-1.2v-3.4c0-0.5-0.1-0.9-0.4-1.1c-0.3-0.2-0.6-0.4-1.1-0.4c-0.4,0-0.7,0.1-0.9,0.3c-0.2,0.2-0.3,0.5-0.3,0.8
		c0,0.3,0,0.6,0.2,0.8l-0.9,0.3c-0.2-0.4-0.2-0.7-0.3-1.1c0-0.5,0.2-0.9,0.6-1.3c0.4-0.4,0.9-0.6,1.7-0.6c0.8,0,1.4,0.2,1.8,0.6
		c0.4,0.4,0.6,1,0.6,1.7V49.9z"/>
	<path class="st1" d="M109.7,49.2c0-0.6-0.1-1.1-0.4-1.4c-0.3-0.4-0.6-0.5-1-0.5c-0.5,0-0.9,0.2-1.1,0.6s-0.4,0.8-0.4,1.4
		c0,1.1,0.7,2.1,2.2,3h-1.4c-1.1-0.8-1.7-1.8-1.7-3c0-0.5,0.1-1.1,0.3-1.6c0.4-1,1-1.8,1.8-2.4c0.8-0.6,2-1,3.6-1V45
		c-0.8,0-1.6,0.1-2.3,0.4c-0.7,0.3-1.3,0.7-1.8,1.4c0.4-0.2,0.7-0.3,0.9-0.3c0.8,0,1.4,0.5,1.9,1.4c0.5-1,1.1-1.4,1.9-1.4
		c0.7,0,1.3,0.3,1.8,0.8c0.4,0.5,0.7,1.2,0.7,2c0,1.2-0.6,2.2-1.8,3h-1.4c1.5-1,2.2-2,2.2-3c0-0.6-0.1-1-0.4-1.4
		c-0.3-0.4-0.6-0.6-1-0.6c-0.4,0-0.7,0.2-1,0.5c-0.3,0.3-0.4,0.8-0.4,1.4l0,1.2l-0.9,0V49.2z"/>
	<path class="st1" d="M118.9,44.2c-0.1,0.8,0.2,1.5,1,2.2c0.8,0.7,1.2,1.6,1.2,2.7c0,1-0.2,1.7-0.7,2.3c-0.5,0.6-1.1,0.9-1.8,0.9
		c-0.8,0-1.4-0.3-1.9-0.9c-0.5-0.6-0.7-1.5-0.7-2.5c0-0.7,0.1-1.2,0.4-1.6l0.9,0.3c-0.2,0.4-0.3,0.9-0.3,1.3c0,0.7,0.2,1.4,0.5,1.8
		c0.3,0.5,0.7,0.7,1.2,0.7c0.4,0,0.7-0.2,1.1-0.6c0.3-0.4,0.5-1,0.5-1.6c0-1-0.4-1.8-1.1-2.4c-0.8-0.7-1.1-1.5-1.1-2.6L118.9,44.2z"
		/>
	<path class="st1" d="M123.7,49.2c-0.1,0.3-0.2,0.6-0.2,0.9c0,0.3,0.1,0.7,0.4,1c0.2,0.3,0.7,0.5,1.3,0.5c0.5,0,0.9-0.2,1.1-0.5
		c0.2-0.3,0.4-0.7,0.4-1c0-0.4-0.1-0.8-0.4-1.1c-0.3-0.3-0.6-0.5-0.9-0.5h-0.9v-0.8h0.9c0.3,0,0.6-0.1,0.7-0.2
		c0.2-0.2,0.2-0.4,0.2-0.7c0-0.4-0.3-0.7-1-1c-0.7-0.3-1-0.7-1-1.4h1.1c0,0.4,0.3,0.7,1,1c0.6,0.3,1,0.7,1,1.3
		c0,0.4-0.1,0.7-0.2,0.9c-0.2,0.2-0.4,0.4-0.7,0.6c0.4,0.2,0.7,0.5,1,0.8c0.2,0.3,0.3,0.7,0.3,1.2c0,0.6-0.2,1.1-0.6,1.6
		c-0.4,0.5-1.1,0.7-1.9,0.7c-0.9,0-1.6-0.2-2-0.7c-0.4-0.5-0.6-1-0.6-1.6c0-0.4,0.1-0.8,0.2-1.2L123.7,49.2z"/>
	<path class="st1" d="M130.2,52.3c-0.7-1.4-1-2.8-1-4.3c0-1.1,0.2-2,0.7-2.7c0.5-0.7,1.1-1,1.9-1c0.8,0,1.4,0.4,1.9,1
		c0.5,0.7,0.7,1.6,0.7,2.7c0,1.5-0.3,2.9-1,4.3h-1.1c0.7-1.7,1.1-3.1,1.1-4.5c0-0.8-0.1-1.4-0.4-2c-0.3-0.5-0.7-0.8-1.2-0.8
		c-0.5,0-0.9,0.3-1.2,0.8c-0.3,0.5-0.4,1.2-0.4,2c0,1.3,0.4,2.8,1.1,4.5H130.2z"/>
	<path class="st1" d="M136.9,52.3c-0.7-1.4-1-2.8-1-4.3c0-1.1,0.2-2,0.7-2.7c0.5-0.7,1.1-1,1.9-1c0.8,0,1.4,0.4,1.9,1
		c0.5,0.7,0.7,1.6,0.7,2.7c0,1.5-0.3,2.9-1,4.3h-1.1c0.7-1.7,1.1-3.1,1.1-4.5c0-0.8-0.1-1.4-0.4-2c-0.3-0.5-0.7-0.8-1.2-0.8
		c-0.5,0-0.9,0.3-1.2,0.8c-0.3,0.5-0.4,1.2-0.4,2c0,1.3,0.4,2.8,1.1,4.5H136.9z"/>
	<path class="st1" d="M147.6,49.8c0,0.8-0.2,1.4-0.7,1.9c-0.5,0.5-1.1,0.7-1.9,0.7c-0.8,0-1.4-0.3-1.8-0.8c-0.4-0.5-0.7-1.2-0.7-2.1
		v-5.1h0.9v5.1c0,0.6,0.1,1.2,0.4,1.6c0.3,0.4,0.7,0.6,1.1,0.6c0.5,0,0.9-0.2,1.2-0.5c0.3-0.3,0.4-0.8,0.4-1.3
		c0-0.7-0.2-1.2-0.7-1.7c-0.5-0.5-0.8-0.8-0.8-1.2c0-0.3,0-0.6,0-0.9h0.9c0,0.3-0.1,0.5-0.1,0.7c0.1,0.2,0.3,0.6,0.8,1.1
		S147.6,49,147.6,49.8"/>
	<path class="st1" d="M158.2,46.4c0,0.2,0,0.5-0.1,0.7c-0.1,0.3-0.4,0.5-0.8,0.7c0.8,0.3,1.3,0.9,1.2,1.7c0,1-0.3,1.7-0.9,2.1
		c-0.6,0.4-1.2,0.7-1.9,0.7c-1,0-1.8-0.4-2.4-1.1c-0.6-0.7-0.9-1.8-0.9-3.2c0-1.2,0.3-2.5,0.9-3.8h1.1c-0.7,1.2-1,2.4-1,3.7
		c0,1.1,0.2,2,0.6,2.6c0.4,0.7,1,1,1.7,1c0.6,0,1-0.2,1.4-0.5c0.3-0.3,0.5-0.9,0.5-1.5c0-0.8-0.4-1.2-1.1-1.2h-0.8v-0.8h0.7
		c0.2,0,0.3-0.1,0.5-0.2c0.2-0.1,0.3-0.4,0.3-0.8c0-0.3-0.2-0.6-0.7-0.8c-0.5-0.2-0.7-0.7-0.7-1.4h0.9c0,0.4,0.3,0.7,0.8,1
		C157.9,45.5,158.2,45.9,158.2,46.4"/>
	<path class="st1" d="M165,49.9c0,0.7-0.2,1.3-0.7,1.8c-0.4,0.5-1,0.7-1.8,0.7c-0.8,0-1.4-0.2-1.9-0.7c-0.5-0.5-0.7-1.1-0.7-1.9
		c0-0.3,0.1-0.7,0.4-1.2l0.9,0.3c-0.2,0.3-0.3,0.6-0.3,0.9c0,0.6,0.2,1.1,0.5,1.4c0.3,0.3,0.7,0.5,1.1,0.5c0.5,0,0.9-0.2,1.1-0.5
		c0.3-0.3,0.4-0.7,0.4-1.2v-3.4c0-0.5-0.1-0.9-0.4-1.1c-0.3-0.2-0.6-0.4-1.1-0.4c-0.4,0-0.7,0.1-0.9,0.3c-0.2,0.2-0.3,0.5-0.3,0.8
		c0,0.3,0,0.6,0.2,0.8l-0.9,0.3c-0.2-0.4-0.2-0.7-0.3-1.1c0-0.5,0.2-0.9,0.6-1.3c0.4-0.4,0.9-0.6,1.7-0.6c0.8,0,1.4,0.2,1.8,0.6
		c0.4,0.4,0.6,1,0.6,1.7V49.9z"/>
	<path class="st1" d="M169.3,47.3c-0.5,0-0.9,0.2-1.2,0.6c-0.3,0.4-0.5,1-0.5,1.7c0,0.6,0.1,1.1,0.4,1.5c0.3,0.4,0.7,0.5,1.2,0.5
		c0.6,0,1-0.2,1.3-0.6s0.4-0.9,0.4-1.6c0-0.7-0.1-1.2-0.4-1.6C170.3,47.5,169.8,47.3,169.3,47.3 M169.3,46.5c0.8,0,1.5,0.3,2,0.8
		c0.5,0.5,0.7,1.2,0.7,2.1c0,0.9-0.2,1.7-0.7,2.2c-0.5,0.5-1.1,0.8-2,0.8c-0.8,0-1.5-0.2-1.9-0.7c-0.5-0.5-0.7-1.2-0.7-2.1v-3.7
		c0-1,0.6-1.5,1.7-1.5h3v0.8h-3c-0.5,0-0.8,0.2-0.8,0.7l0,1.5C168.1,46.8,168.7,46.5,169.3,46.5"/>
	<path class="st1" d="M179.4,48.5c0-0.9-0.2-1.7-0.6-2.2c-0.4-0.5-0.9-0.8-1.5-0.9l0.1,3.2h-1l0.1-3.2c-0.6,0.1-1,0.4-1.5,0.9
		c-0.4,0.5-0.6,1.2-0.6,2.2c0,1,0.2,1.7,0.7,2.3c0.4,0.6,1,0.9,1.8,0.9c0.7,0,1.3-0.3,1.8-0.8C179.2,50.2,179.4,49.4,179.4,48.5
		 M180.4,48.5c0,1.2-0.3,2.1-0.9,2.8c-0.6,0.7-1.5,1.1-2.5,1.1c-1,0-1.9-0.4-2.5-1.1c-0.6-0.7-0.9-1.6-0.9-2.8
		c0-1.2,0.3-2.1,0.9-2.7c0.6-0.7,1.3-1,2.2-1.1l-0.1-0.4h0.9l-0.1,0.4c0.9,0.1,1.6,0.4,2.2,1.1C180.1,46.4,180.4,47.3,180.4,48.5"/>
	<path class="st1" d="M185.7,49.2c0-0.6-0.1-1.1-0.4-1.4c-0.3-0.4-0.6-0.5-1-0.5c-0.5,0-0.9,0.2-1.1,0.6s-0.4,0.8-0.4,1.4
		c0,1.1,0.7,2.1,2.2,3h-1.4c-1.1-0.8-1.7-1.8-1.7-3c0-0.5,0.1-1.1,0.3-1.6c0.4-1,1-1.8,1.8-2.4c0.8-0.6,2-1,3.6-1V45
		c-0.8,0-1.6,0.1-2.3,0.4c-0.7,0.3-1.3,0.7-1.8,1.4c0.4-0.2,0.7-0.3,0.9-0.3c0.8,0,1.4,0.5,1.9,1.4c0.5-1,1.1-1.4,1.9-1.4
		c0.7,0,1.3,0.3,1.8,0.8c0.4,0.5,0.7,1.2,0.7,2c0,1.2-0.6,2.2-1.8,3h-1.4c1.5-1,2.2-2,2.2-3c0-0.6-0.1-1-0.4-1.4
		c-0.3-0.4-0.6-0.6-1-0.6c-0.4,0-0.7,0.2-1,0.5c-0.3,0.3-0.4,0.8-0.4,1.4l0,1.2l-0.9,0V49.2z"/>
	<path class="st1" d="M193,52.3c-0.7-1.4-1-2.8-1-4.3c0-1.1,0.2-2,0.7-2.7c0.5-0.7,1.1-1,1.9-1c0.8,0,1.4,0.4,1.9,1
		c0.5,0.7,0.7,1.6,0.7,2.7c0,1.5-0.3,2.9-1,4.3H195c0.7-1.7,1.1-3.1,1.1-4.5c0-0.8-0.1-1.4-0.4-2c-0.3-0.5-0.7-0.8-1.2-0.8
		c-0.5,0-0.9,0.3-1.2,0.8c-0.3,0.5-0.4,1.2-0.4,2c0,1.3,0.4,2.8,1.1,4.5H193z"/>
	<path class="st2" d="M271.6,7.9c0,0-0.1-0.1-0.1-0.1c-6.3-4.8-14-7.4-22.1-7.4c-9.9,0-19.1,3.8-26.1,10.8c-7,7-10.8,16.3-10.8,26.2
		c0,9.9,3.8,19.2,10.8,26.2c7,7,16.2,10.8,26.1,10.8c9.9,0,19.1-3.8,26.1-10.8c7-7,10.8-16.3,10.8-26.2c0-9.9-3.8-19.2-10.8-26.2
		C274.3,10.1,273,9,271.6,7.9"/>
	<path class="st3" d="M269.4,10.8L269.4,10.8c0.7,0.5,1.3,1,1.9,1.5c0.6,0.5,1.2,1,1.7,1.6c3.1,3.2,5.6,6.8,7.2,10.8
		c1.7,4,2.5,8.3,2.5,12.8c0,4.5-0.9,8.8-2.5,12.8c-1.7,4-4.1,7.7-7.2,10.8c-3.1,3.2-6.8,5.6-10.8,7.3c-4,1.7-8.3,2.5-12.8,2.5
		c-4.4,0-8.8-0.9-12.8-2.5c-4-1.7-7.7-4.1-10.8-7.3c-3.1-3.2-5.6-6.8-7.2-10.8c-1.7-4-2.5-8.3-2.5-12.8c0-4.5,0.9-8.8,2.5-12.8
		s4.1-7.7,7.2-10.8c3.1-3.2,6.8-5.6,10.8-7.3c4-1.7,8.3-2.5,12.8-2.5c3.6,0,7.2,0.6,10.5,1.7C263.3,6.9,266.5,8.6,269.4,10.8
		C269.4,10.7,269.4,10.8,269.4,10.8L269.4,10.8z M268.8,11.7L268.8,11.7L268.8,11.7L268.8,11.7c-2.8-2.1-5.9-3.7-9.1-4.8
		c-3.2-1.1-6.6-1.6-10.2-1.6c-4.3,0-8.5,0.8-12.3,2.4c-3.9,1.6-7.4,4-10.4,7c-3,3-5.4,6.6-7,10.5c-1.6,3.9-2.4,8-2.4,12.3
		c0,4.3,0.8,8.5,2.4,12.3c1.6,3.9,3.9,7.4,7,10.4c3,3,6.6,5.4,10.4,7c3.8,1.6,8,2.4,12.3,2.4c4.3,0,8.5-0.8,12.3-2.4
		c3.9-1.6,7.4-4,10.4-7c3-3,5.4-6.6,7-10.4c1.6-3.9,2.4-8,2.4-12.3c0-4.3-0.8-8.5-2.4-12.3c-1.6-3.9-3.9-7.4-7-10.5
		c-0.5-0.5-1.1-1.1-1.7-1.5C270,12.7,269.4,12.2,268.8,11.7L268.8,11.7z"/>
	<path class="st4" d="M226.1,49.6c0.8,1.7,2.9-2.5,3.8-3.8C228.6,45.9,225.4,47.9,226.1,49.6"/>
	<path class="st5" d="M245.7,54.3c-0.3,2.1,1.7,5.8,2.9,7.5c0.3,0.4,0.6,0.8,0.9,1.1c0.3-0.3,0.6-0.7,0.9-1.1
		c1.2-1.7,3.2-5.3,2.9-7.5c-0.1-1-2.1-3.2-2.6-3.9c-0.4-0.7-0.8-1.3-1.2-2c-0.4,0.7-0.8,1.3-1.2,2C247.8,51.1,245.8,53.3,245.7,54.3
		 M249.5,56.7C249.5,56.7,249.5,56.7,249.5,56.7C249.5,56.7,249.5,56.7,249.5,56.7c0.7,0.7,0.5,1.7,0,2.5
		C248.9,58.5,248.8,57.4,249.5,56.7"/>
	<path class="st6" d="M234.9,48.7c-1.1,0.8-1.8,3.3-2,4.5c0,0.3-0.1,0.6-0.1,0.9c0.3,0,0.6,0,0.9-0.1c1.3-0.2,3.7-0.9,4.5-2
		c0.4-0.5,0.5-2.3,0.6-2.9c0.1-0.5,0.2-0.9,0.3-1.4c-0.5,0.1-0.9,0.2-1.4,0.3C237.2,48.3,235.4,48.4,234.9,48.7 M234.3,52.6
		c0.1-0.6,0.5-1.1,1.1-1.1h0v0C235.5,52.1,234.9,52.5,234.3,52.6"/>
	<path class="st4" d="M241.5,12.4c-1.7,0.7-0.8,4.4,0,5.4C241.7,16.2,243.3,11.8,241.5,12.4"/>
	<path class="st4" d="M241.5,62.6c1.8,0.6,0.2-3.8,0-5.4C240.7,58.2,239.8,61.9,241.5,62.6"/>
	<path class="st4" d="M257.4,62.6c1.7-0.7,0.8-4.4,0-5.4C257.2,58.8,255.7,63.2,257.4,62.6"/>
	<path class="st4" d="M257.4,12.4c-1.8-0.6-0.2,3.8,0,5.4C258.2,16.8,259.1,13.1,257.4,12.4"/>
	<path class="st4" d="M226.1,25.4c-0.7,1.7,2.5,3.6,3.8,3.8C228.9,27.9,226.9,23.7,226.1,25.4"/>
	<path class="st4" d="M237.4,14.1c-1.7,0.8,2.5,2.9,3.8,3.8C241,16.6,239.1,13.4,237.4,14.1"/>
	<path class="st4" d="M224.4,45.5c0.7,1.7,4.4,0.8,5.4,0C228.2,45.2,223.8,43.7,224.4,45.5"/>
	<path class="st6" d="M238.2,22.9c-0.8-1.1-3.3-1.8-4.5-2c-0.3,0-0.6-0.1-0.9-0.1c0,0.3,0,0.6,0.1,0.9c0.2,1.3,0.9,3.7,2,4.5
		c0.5,0.4,2.3,0.5,2.9,0.6c0.5,0.1,0.9,0.2,1.4,0.3c-0.1-0.5-0.2-0.9-0.3-1.4C238.7,25.2,238.6,23.4,238.2,22.9 M235.5,23.5
		L235.5,23.5c-0.6,0-1-0.5-1.1-1.1C234.9,22.5,235.5,22.9,235.5,23.5L235.5,23.5z"/>
	<path class="st4" d="M224.4,29.5c-0.6,1.8,3.8,0.2,5.4,0C228.7,28.7,225.1,27.8,224.4,29.5"/>
	<path class="st4" d="M237.4,60.9c1.7,0.7,3.6-2.5,3.8-3.8C239.9,58,235.7,60,237.4,60.9"/>
	<path class="st4" d="M274.5,29.5c-0.7-1.7-4.4-0.8-5.4,0C270.7,29.8,275.1,31.3,274.5,29.5"/>
	<path class="st4" d="M261.5,14.1c-1.7-0.7-3.6,2.5-3.8,3.8C259,17,263.2,15,261.5,14.1"/>
	<path class="st5" d="M266.2,41.3c2.1,0.3,5.8-1.7,7.5-2.9c0.4-0.3,0.8-0.6,1.1-0.9c-0.3-0.3-0.7-0.6-1.1-0.9
		c-1.7-1.2-5.3-3.2-7.5-2.9c-1,0.2-3.2,2.1-3.9,2.6c-0.7,0.4-1.3,0.8-2,1.2c0.7,0.4,1.3,0.8,2,1.2C263.1,39.2,265.2,41.1,266.2,41.3
		 M268.7,37.5c0.7-0.7,1.7-0.5,2.5,0C270.4,38,269.4,38.2,268.7,37.5C268.7,37.5,268.7,37.5,268.7,37.5
		C268.7,37.5,268.7,37.5,268.7,37.5"/>
	<path class="st4" d="M274.5,45.5c0.6-1.8-3.8-0.2-5.4,0C270.2,46.3,273.8,47.2,274.5,45.5"/>
	<path class="st4" d="M272.8,25.4c-0.8-1.7-2.9,2.5-3.8,3.8C270.3,29.1,273.5,27.1,272.8,25.4"/>
	<path class="st5" d="M253.3,20.7c0.3-2.1-1.7-5.8-2.9-7.5c-0.3-0.4-0.6-0.8-0.9-1.1c-0.3,0.3-0.6,0.7-0.9,1.1
		c-1.2,1.7-3.2,5.3-2.9,7.5c0.2,1,2.1,3.2,2.6,3.9c0.4,0.7,0.8,1.3,1.2,2c0.4-0.7,0.8-1.3,1.2-2C251.1,23.9,253.1,21.7,253.3,20.7
		 M249.5,18.3C249.5,18.3,249.5,18.3,249.5,18.3C249.5,18.3,249.5,18.3,249.5,18.3c-0.7-0.7-0.5-1.7,0-2.5
		C250,16.5,250.1,17.6,249.5,18.3"/>
	<path class="st6" d="M264.1,26.2c1.1-0.8,1.8-3.2,2-4.5c0.1-0.3,0.1-0.6,0.1-0.9c-0.3,0-0.6,0-0.9,0.1c-1.3,0.2-3.7,0.9-4.5,2
		c-0.4,0.5-0.4,2.3-0.6,2.8c-0.1,0.5-0.2,0.9-0.3,1.4c0.4-0.1,0.9-0.2,1.4-0.3C261.8,26.6,263.6,26.6,264.1,26.2 M263.5,23.5
		c0-0.6,0.5-1,1.1-1.1C264.5,22.9,264.1,23.5,263.5,23.5L263.5,23.5L263.5,23.5z"/>
	<path class="st4" d="M261.5,60.9c1.7-0.8-2.5-2.9-3.8-3.8C257.9,58.4,259.8,61.6,261.5,60.9"/>
	<path class="st4" d="M272.8,49.6c0.7-1.7-2.5-3.6-3.8-3.8C270,47.1,272,51.3,272.8,49.6"/>
	<path class="st6" d="M260.9,52.1c0.8,1.1,3.2,1.8,4.4,1.9c0.3,0,0.6,0.1,0.9,0.1c0-0.3,0-0.6-0.1-0.9c-0.2-1.2-0.9-3.6-1.9-4.4
		c-0.5-0.4-2.2-0.4-2.8-0.6c-0.5-0.1-0.9-0.2-1.3-0.3c0.1,0.4,0.2,0.9,0.3,1.3C260.4,49.9,260.5,51.7,260.9,52.1 M263.5,51.6
		L263.5,51.6c0.6,0,1,0.5,1.1,1.1C264.1,52.6,263.5,52.2,263.5,51.6L263.5,51.6z"/>
	<path class="st5" d="M232.7,33.7c-2.1-0.3-5.8,1.7-7.5,2.9c-0.4,0.3-0.8,0.6-1.1,0.9c0.3,0.3,0.7,0.6,1.1,0.9
		c1.7,1.2,5.3,3.2,7.5,2.9c1-0.2,3.2-2.1,3.9-2.6c0.7-0.4,1.3-0.8,2-1.2c-0.7-0.4-1.3-0.8-2-1.2C235.9,35.8,233.7,33.9,232.7,33.7
		 M230.2,37.5c-0.7,0.7-1.7,0.5-2.5,0C228.5,37,229.6,36.8,230.2,37.5C230.2,37.5,230.2,37.5,230.2,37.5
		C230.2,37.5,230.2,37.5,230.2,37.5"/>
	<path class="st6" d="M249.9,33c-0.8,0-1.6,0.2-2.2,0.7c-0.1,0.1-0.2,0.1-0.2,0.2c-0.5,0.5-0.9,1-1.1,1.6c-0.1,0.4-0.1,0.4,0,0.8
		c0.1,0.3,0.2,0.5,0.4,0.7c0.2,0.3,0.4,0.5,0.7,0.7c0.7,0.6,1.6,0.9,2.6,0.9c0.3,0,0.6,0,0.9-0.1C254.3,37.8,253.6,33,249.9,33
		 M254.2,32.8C254.2,32.7,254.2,32.7,254.2,32.8c-0.8-1-1.6-1.4-2.8-1.7c-0.5-0.1-1-0.2-1.5-0.2c-1.3,0-2.6,0.4-3.7,1.1
		c-0.1,0.1-0.3,0.2-0.4,0.3c-1.1,1-1.8,2.1-2.1,3.5c-0.4,1.9-0.3,3.6,0.9,5.2c0.2,0.3,0.4,0.6,0.7,0.9c-0.6,0-1.1,0-1.7,0
		c0.3,1.1,1.3,2,2.6,2c2.5,0,5,0.1,7.5,0.1c0.6,0,1.2,0,1.8,0c-0.3-1.1-1.3-2-2.6-2h-2.9c-1.9-0.1-3.5-1.3-4.2-2.9
		c1.2,1,2.7,1.6,4.4,1.6c0.5,0,1-0.1,1.5-0.2C255.3,39.8,256.5,35.7,254.2,32.8"/>
</g>
</svg>
